<svg viewBox="0 0 96 96" xmlns="http://www.w3.org/2000/svg" xmlns:xlink="http://www.w3.org/1999/xlink" id="Icons_Eyes_M" overflow="hidden"><g id="Icons"><path d="M25 59C33.589 59 41.2 53.1 44.34 49.619 45.2672 48.5945 45.2123 47.0185 44.216 46.061 41.409 43.336 33.918 37 25 37 16.082 37 8.591 43.336 5.784 46.061 4.78851 47.019 4.73405 48.5945 5.661 49.619 8.8 53.1 16.411 59 25 59ZM42.827 47.5C43.0456 47.707 43.0602 48.0502 42.86 48.275 39.6018 51.7682 35.5408 54.414 31.029 55.983 30.999 55.993 30.995 55.983 31.021 55.967 35.4204 52.6622 36.3079 46.4167 33.0031 42.0173 32.4434 41.2722 31.7819 40.6093 31.038 40.048 31.012 40.029 31.016 40.022 31.047 40.032 35.4632 41.649 39.4804 44.1958 42.827 47.5ZM25 40C29.4183 40 33 43.5817 33 48 33 52.4183 29.4183 56 25 56 20.5817 56 17 52.4183 17 48 17.005 43.5838 20.5838 40.005 25 40ZM7.173 47.5C10.52 44.1958 14.5376 41.6491 18.954 40.032 18.984 40.022 18.988 40.032 18.963 40.048 14.5706 43.3612 13.6958 49.6079 17.009 54.0002 17.5707 54.7449 18.2342 55.4069 18.98 55.967 19.005 55.986 19.001 55.993 18.971 55.983 14.4595 54.414 10.3988 51.7682 7.141 48.275 6.94102 48.0503 6.95517 47.7075 7.173 47.5Z" fill="#4472C4"/><path d="M25 52C27.2091 52 29 50.2091 29 48 29 45.7909 27.2091 44 25 44 22.7909 44 21 45.7909 21 48 21 50.2091 22.7909 52 25 52ZM25 46C26.1046 46 27 46.8954 27 48 27 49.1046 26.1046 50 25 50 23.8954 50 23 49.1046 23 48 23 46.8954 23.8954 46 25 46Z" fill="#4472C4"/><path d="M71 59C79.589 59 87.2 53.1 90.34 49.619 91.2672 48.5945 91.2123 47.0185 90.216 46.061 87.409 43.336 79.918 37 71 37 62.082 37 54.591 43.336 51.784 46.061 50.7885 47.019 50.734 48.5945 51.661 49.619 54.8 53.1 62.411 59 71 59ZM88.834 47.506C89.0487 47.7087 89.0633 48.0454 88.867 48.266 85.6083 51.7637 81.5445 54.4125 77.029 55.982 76.999 55.992 76.995 55.982 77.021 55.966 81.4202 52.6618 82.3078 46.417 79.0036 42.0178 78.4438 41.2725 77.7821 40.6094 77.038 40.048 77.012 40.028 77.017 40.021 77.047 40.031 81.4661 41.6494 85.4859 44.1987 88.834 47.506ZM69.434 40.15C73.7672 39.287 77.9795 42.1001 78.8425 46.4333 79.7056 50.7664 76.8925 54.9788 72.5593 55.8418 68.2261 56.7048 64.0138 53.8917 63.1507 49.5586 62.9452 48.5265 62.9453 47.464 63.151 46.432 63.787 43.263 66.264 40.786 69.433 40.15ZM53.17 47.5C56.5174 44.1946 60.5357 41.6468 64.953 40.029 64.984 40.019 64.988 40.029 64.963 40.046 60.5709 43.3587 59.6959 49.6046 63.0085 53.9967 63.5703 54.7416 64.234 55.4038 64.98 55.964 65.005 55.983 65.001 55.99 64.971 55.98 60.458 54.4107 56.3959 51.7642 53.137 48.27 52.9373 48.0469 52.952 47.7052 53.17 47.5Z" fill="#4472C4"/><path d="M71 52C73.2091 52 75 50.2091 75 48 75 45.7909 73.2091 44 71 44 68.7909 44 67 45.7909 67 48 67 50.2091 68.7909 52 71 52ZM71 46C72.1046 46 73 46.8954 73 48 73 49.1046 72.1046 50 71 50 69.8954 50 69 49.1046 69 48 69 46.8954 69.8954 46 71 46Z" fill="#4472C4"/></g></svg>